# xmcd
#
# Track frame offsets:
# 150
# 15100
# 31380
# 46132
# 60637
# 77013
# 92575
# 104708
# 121297
# 136706
#
# Disc length: 2046 seconds
#
#
# Revision: 0
# Processed by: cddbd v1.5PL3 Copyright (c) Steve Scherf et al.
# Submitted via: FreeRIP 2.53 
#
DISCID=7007fc0a
DTITLE=Ricochet - Ricochet
DYEAR=1900
DGENRE=
TTITLE0=Daddy's Money
TTITLE1=What Do I Know
TTITLE2=I Can't Dance
TTITLE3=Love Is Stronger Than Pride
TTITLE4=Ease My Troubled Mind
TTITLE5=A Little Bit Of Love Is A Dangerous Thing
TTITLE6=From Good To Bad To Worse To Gone
TTITLE7=The Truth Is I Lied
TTITLE8=I Wasn't Ready For You
TTITLE9=Rowdy
EXTD=
EXTT0=
EXTT1=
EXTT2=
EXTT3=
EXTT4=
EXTT5=
EXTT6=
EXTT7=
EXTT8=
EXTT9=
PLAYORDER=
